
<svg xmlns="http://www.w3.org/2000/svg" version="1.1" width="512px" height="512px" style="shape-rendering:geometricPrecision; text-rendering:geometricPrecision; image-rendering:optimizeQuality; fill-rule:evenodd; clip-rule:evenodd" xmlns:xlink="http://www.w3.org/1999/xlink">
<g><path style="opacity:0.981" fill="#37464e" d="M 45.5,73.5 C 41.5,73.5 37.5,73.5 33.5,73.5C 12.0814,67.6892 2.91473,53.6892 6,31.5C 13.7251,9.88298 28.8918,1.71632 51.5,7C 68.7627,15.0208 75.9294,28.5208 73,47.5C 69.0788,61.7113 59.9122,70.3779 45.5,73.5 Z"/></g>
<g><path style="opacity:0.981" fill="#37464e" d="M 477.5,73.5 C 473.5,73.5 469.5,73.5 465.5,73.5C 444.081,67.6892 434.915,53.6892 438,31.5C 445.725,9.88298 460.892,1.71632 483.5,7C 500.763,15.0208 507.929,28.5208 505,47.5C 501.079,61.7113 491.912,70.3779 477.5,73.5 Z"/></g>
<g><path style="opacity:0.996" fill="#ced7db" d="M 465.5,138.5 C 468.726,145.953 472.726,152.953 477.5,159.5C 493.165,188.146 502.332,218.812 505,251.5C 505.667,293.5 505.667,335.5 505,377.5C 497.833,410 478,429.833 445.5,437C 399.121,437.02 352.788,437.687 306.5,439C 279.92,471.718 246.087,493.218 205,503.5C 191.353,501.908 185.686,494.242 188,480.5C 194.608,469.011 197.275,456.678 196,443.5C 195.06,440.227 192.893,438.394 189.5,438C 146.462,437.973 103.462,437.306 60.5,436C 30.5974,427.431 12.4307,407.931 6,377.5C 5.33333,335.5 5.33333,293.5 6,251.5C 8.66846,218.812 17.8351,188.146 33.5,159.5C 38.2741,152.953 42.2741,145.953 45.5,138.5C 97.2353,67.9621 167.235,32.2954 255.5,31.5C 343.765,32.2954 413.765,67.9621 465.5,138.5 Z"/></g>
<g><path style="opacity:1" fill="#263238" d="M 33.5,73.5 C 37.5,73.5 41.5,73.5 45.5,73.5C 45.5,95.1667 45.5,116.833 45.5,138.5C 42.2741,145.953 38.2741,152.953 33.5,159.5C 33.5,130.833 33.5,102.167 33.5,73.5 Z"/></g>
<g><path style="opacity:1" fill="#263238" d="M 465.5,73.5 C 469.5,73.5 473.5,73.5 477.5,73.5C 477.5,102.167 477.5,130.833 477.5,159.5C 472.726,152.953 468.726,145.953 465.5,138.5C 465.5,116.833 465.5,95.1667 465.5,73.5 Z"/></g>
<g><path style="opacity:1" fill="#37474f" d="M 238.5,81.5 C 317.137,78.1714 379.304,108.171 425,171.5C 440.277,195.722 449.61,222.055 453,250.5C 453.667,284.833 453.667,319.167 453,353.5C 449.954,370.88 439.787,381.38 422.5,385C 310.5,385.667 198.5,385.667 86.5,385C 70.3312,380.499 60.8312,369.999 58,353.5C 57.3333,319.167 57.3333,284.833 58,250.5C 69.1783,180.638 106.678,130.471 170.5,100C 192.354,90.3724 215.021,84.2057 238.5,81.5 Z"/></g>
<g><path style="opacity:1" fill="#04a7f2" d="M 148.5,185.5 C 173.489,184.656 185.655,196.656 185,221.5C 179.395,239.426 167.228,247.26 148.5,245C 131.217,238.944 123.717,226.777 126,208.5C 129.684,196.984 137.184,189.317 148.5,185.5 Z"/></g>
<g><path style="opacity:1" fill="#04a7f2" d="M 348.5,185.5 C 373.489,184.656 385.655,196.656 385,221.5C 379.395,239.426 367.228,247.26 348.5,245C 331.217,238.944 323.717,226.777 326,208.5C 329.684,196.984 337.184,189.317 348.5,185.5 Z"/></g>
<g><path style="opacity:1" fill="#fdfefe" d="M 305.5,319.5 C 283.749,299.648 258.749,294.148 230.5,303C 221.109,307.02 212.776,312.52 205.5,319.5C 194.802,309.104 189.302,296.437 189,281.5C 190.167,277.667 192.667,275.167 196.5,274C 235.833,273.333 275.167,273.333 314.5,274C 321.433,277.372 323.933,282.872 322,290.5C 319.049,301.75 313.549,311.417 305.5,319.5 Z"/></g>
<g><path style="opacity:1" fill="#0da9f3" d="M 305.5,319.5 C 296.92,329.812 285.92,336.645 272.5,340C 245.969,346.096 223.636,339.263 205.5,319.5C 212.776,312.52 221.109,307.02 230.5,303C 258.749,294.148 283.749,299.648 305.5,319.5 Z"/></g>
</svg>
